<svg width="96" height="36" viewBox="0 0 96 36" fill="none" xmlns="http://www.w3.org/2000/svg">
<g clip-path="url(#clip0_2001_4913)">
<g clip-path="url(#clip1_2001_4913)">
<path d="M18 1C27.3888 1 35 8.61116 35 18C35 27.3888 27.3888 35 18 35C8.61116 35 1 27.3888 1 18C1 8.61116 8.61116 1 18 1Z" fill="#191919" stroke="#191919" stroke-width="2"/>
<path fill-rule="evenodd" clip-rule="evenodd" d="M17.9997 6.53906L22.5717 13.6688L17.9997 20.8191L13.4277 13.6688L17.9997 6.53906Z" fill="#FDFDFD"/>
<path d="M32.46 18.0013C32.46 17.9997 32.46 17.9981 32.46 17.9965H32.4599C32.4567 17.6183 32.1491 17.3125 31.77 17.3125C31.391 17.3125 31.0834 17.6183 31.0802 17.9965H31.08C31.08 25.2204 25.2239 31.0765 18 31.0765C10.7762 31.0765 4.92004 25.2204 4.92004 17.9965H4.91992C4.91668 17.6183 4.60912 17.3125 4.23004 17.3125C3.85096 17.3125 3.5434 17.6183 3.54016 17.9965H3.54004C3.54004 17.9981 3.54004 17.9997 3.54004 18.0013C3.54004 18.0017 3.54004 18.0021 3.54004 18.0025C3.54004 18.0032 3.54004 18.0038 3.54004 18.0045C3.54436 25.9868 10.0167 32.4565 18 32.4565C25.9834 32.4565 32.4557 25.9868 32.46 18.0045C32.46 18.0038 32.46 18.0032 32.46 18.0025C32.46 18.0021 32.46 18.0017 32.46 18.0013Z" fill="#FDFDFD"/>
</g>
<path d="M58.3459 15.5827C58.5186 15.3985 58.6928 15.2171 58.8625 15.0307C60 13.7788 61.1368 12.5254 62.2751 11.2743C62.3742 11.1655 62.4756 11.0559 62.592 10.966C62.7076 10.8775 62.8345 10.7876 62.9719 10.7433C63.3954 10.6077 64.5652 11.2866 64.623 11.7153C64.6433 11.8668 64.575 12.0489 64.4961 12.1903C63.2429 14.449 62.4583 16.8767 61.718 19.321C61.7112 19.3421 61.715 19.3667 61.712 19.4226C62.0806 19.2079 62.3765 18.9917 62.5116 18.5703C63.0687 16.8346 63.8947 15.2309 65.1959 13.8949C65.886 13.1855 66.6931 12.6415 67.7503 12.5994C68.4839 12.5704 68.969 13.0368 69.017 13.7469C69.0906 14.8189 68.5425 15.6538 67.8164 16.3436C66.8576 17.2546 65.8079 18.0786 64.7724 18.9105C64.5036 19.1267 64.3197 19.3392 64.2776 19.6735C64.2446 19.9361 64.153 20.1965 64.1575 20.4576C64.1605 20.6281 64.2874 20.7971 64.3595 20.9661C64.5006 20.9102 64.6778 20.8899 64.7777 20.7935C66.0181 19.5981 67.1737 18.3389 68.1115 16.8955C68.7737 15.8757 69.5058 14.8965 70.2379 13.9217C70.4692 13.6142 70.7973 13.3726 71.0901 13.1108C71.4415 12.7974 71.8462 12.6415 72.3275 12.7844C72.6128 12.8693 72.6647 12.6582 72.7495 12.4877C73.4973 10.9892 74.2279 9.4827 74.9983 7.99433C75.3047 7.40246 75.6861 6.84613 76.0533 6.28545C76.3679 5.80529 76.7966 5.7226 77.3012 6.02941C77.5542 6.18318 77.7945 6.35799 78.0333 6.53352C78.5221 6.89255 78.5588 7.24651 78.239 7.74989C77.3109 9.20925 76.3438 10.649 75.5006 12.1534C74.3879 14.1378 73.4185 16.1913 72.8726 18.4035C72.8051 18.6784 72.7818 18.9635 72.7375 19.2434L72.8434 19.2978C73.0288 19.0976 73.233 18.9112 73.3967 18.6951C74.4735 17.2734 75.5539 15.854 76.6029 14.4127C76.8875 14.0225 77.0767 13.5656 77.2922 13.1311C77.621 12.4674 78.6039 12.1476 79.2804 12.495C79.6686 12.6944 79.7835 13.0622 79.5823 13.5249C79.0754 14.6927 78.5581 15.8562 78.0528 17.0247C77.8846 17.4127 77.7389 17.8102 77.6383 18.2505C77.7562 18.1424 77.8748 18.0358 77.9912 17.927C79.3112 16.6932 80.5892 15.4122 81.9655 14.2401C82.9258 13.4227 84.0153 12.7452 85.059 12.0213C85.6642 11.6014 86.3332 11.5455 87.0135 11.8364C87.4565 12.0257 87.9017 12.223 88.3094 12.4725C88.6856 12.7024 88.7922 13.2109 88.6248 13.6084C88.5047 13.8941 88.1713 14.0218 87.9618 13.789C87.3814 13.1427 86.864 13.501 86.358 13.8368C84.7001 14.9372 83.3102 16.2921 82.2613 17.9589C82.1059 18.2062 81.955 18.4565 81.8145 18.7118C81.7552 18.8198 81.7274 18.9446 81.6854 19.0614C81.7207 19.086 81.756 19.11 81.7913 19.1346C82.2373 18.7045 82.7118 18.2983 83.1248 17.8399C84.1017 16.757 85.0545 15.6545 86.0058 14.5506C86.2694 14.2452 86.5877 14.1763 86.9421 14.3076C87.1824 14.3961 87.4077 14.539 87.6149 14.6891C87.8769 14.8784 87.9333 15.1374 87.8927 15.4601C87.735 16.7012 87.6044 17.9451 87.476 19.1898C87.4595 19.353 87.4985 19.5263 87.536 19.6902C87.6209 20.0594 87.8004 20.1806 88.1855 20.0964C89.7053 19.7642 91.222 19.4204 92.7402 19.0817C92.9107 19.044 93.0826 19.0135 93.2538 18.9801C93.9191 18.8503 94.4867 19.0099 94.9522 19.4987C95.2143 19.7736 95.5169 20.0152 95.7579 20.3053C96.2092 20.8493 96.0117 21.3404 95.3014 21.4267C94.1864 21.5616 93.0676 21.6646 91.9503 21.7777C90.6108 21.9134 89.272 22.049 87.9317 22.1759C87.6096 22.2064 87.2815 22.2289 86.9594 22.2086C86.2754 22.1643 85.8376 21.7915 85.6086 21.1779C85.2752 20.2828 85.282 19.3573 85.3473 18.4267C85.3623 18.2142 85.3766 18.0017 85.3165 17.7507C85.2197 17.8501 85.1258 17.9516 85.0267 18.0488C84.2556 18.8046 83.495 19.5713 82.7043 20.3068C82.4573 20.5367 82.1352 20.6977 81.8318 20.8616C81.078 21.2693 80.1657 20.9044 79.7377 20.3314C79.4824 19.9905 79.5537 19.6112 79.6528 19.2514C79.767 18.8358 79.9322 18.434 80.0973 17.9654C79.2977 18.7995 78.5408 19.5959 77.7742 20.3836C77.4746 20.6912 77.163 20.9893 76.8401 21.2736C76.4452 21.6211 75.9902 21.6515 75.5284 21.3889C75.1124 21.1518 74.9375 20.776 75.0749 20.2712C75.2986 19.4465 75.5554 18.6305 75.7852 17.8559C75.144 18.6791 74.484 19.5524 73.7939 20.4025C73.4485 20.8283 73.0649 21.2294 72.6662 21.6102C72.3561 21.9061 71.9596 22.0316 71.5294 21.8619C71.0804 21.6849 70.9129 21.3164 70.9062 20.8754C70.8964 20.2879 70.9039 19.7004 70.8378 19.0773C70.7575 19.2014 70.6877 19.3334 70.5953 19.4487C70.0081 20.1798 69.4292 20.9182 68.8165 21.629C68.6664 21.8038 68.4141 21.9148 68.1873 22.0069C67.3816 22.3355 66.7359 21.9765 66.597 21.0771C66.4055 21.2809 66.2546 21.4651 66.0797 21.6247C65.6081 22.0533 65.1464 22.4965 64.6388 22.8831C64.406 23.0608 64.0847 23.1856 63.7881 23.2211C62.7932 23.3415 62.1152 22.7221 62.0604 21.6769C62.0393 21.2714 62.0566 20.8645 62.0566 20.4156C61.5993 20.5751 61.2637 20.7369 61.1593 21.2221C60.7809 22.9789 60.3627 24.7269 59.9842 26.4829C59.9542 26.6207 60.0736 26.8543 60.199 26.9457C60.7374 27.3374 61.308 27.687 61.8599 28.062C62.3494 28.3949 62.3186 28.6698 61.787 28.9382C60.8905 29.3908 60.0038 29.8629 59.102 30.3061C58.5201 30.5926 57.3075 30.4171 56.8524 29.9667C56.7173 29.8332 56.6257 29.5692 56.655 29.3857C56.7849 28.59 56.9133 27.7878 57.1385 27.0146C57.9014 24.394 58.6935 21.7814 59.5007 19.1731C59.768 18.3078 60.1141 17.4657 60.4227 16.6119C60.4708 16.4799 60.5091 16.345 60.5511 16.2108C60.5249 16.1949 60.4986 16.1789 60.4715 16.163C60.0135 16.6823 59.5533 17.1995 59.099 17.7217C58.2468 18.7009 57.4028 19.6873 56.5453 20.6629C56.2292 21.0227 55.8403 21.2758 55.3237 21.278C54.72 21.2802 54.476 20.9842 54.6337 20.4192C55.1728 18.4884 55.7179 16.559 56.2593 14.6289C56.3006 14.4824 56.3291 14.333 56.2848 14.1502C56.0881 14.436 55.8861 14.7174 55.6969 15.0068C54.2402 17.2328 52.9172 19.5314 51.7459 21.909C51.3119 22.7903 50.9275 23.6955 50.537 24.5963C50.2554 25.2462 49.9251 25.4247 49.25 25.1723C48.7988 25.004 48.3573 24.7936 47.9466 24.5477C47.5366 24.3019 47.4615 23.9936 47.6943 23.5838C48.7507 21.7219 49.8147 19.8643 50.8929 18.014C51.4568 17.0471 52.0552 16.0991 52.6364 15.141C52.6972 15.0416 52.7423 14.9328 52.8384 14.7413C52.5771 14.7899 52.3991 14.8088 52.2302 14.8559C49.8192 15.5254 47.4097 16.1978 45.0002 16.8723C44.365 17.05 43.7358 17.2466 43.0991 17.4192C42.5592 17.5665 42.2213 17.4519 41.9713 16.9797C41.6424 16.3581 41.3428 15.7205 41.068 15.0742C40.8855 14.6449 41.0778 14.3105 41.5546 14.2024C42.4886 13.9899 43.4279 13.8006 44.3672 13.6084C47.7956 12.9084 51.224 12.2078 54.6554 11.5194C55.0294 11.4447 55.2666 11.2619 55.4679 10.9573C56.5243 9.36157 57.601 7.77745 58.6635 6.18536C58.912 5.81254 59.1748 5.50428 59.7027 5.56158C60.627 5.66095 61.2907 6.67713 60.9986 7.51416C60.1232 10.0274 59.2642 12.5458 58.4007 15.0626C58.3474 15.2186 58.3143 15.3811 58.2723 15.5406C58.2971 15.5544 58.3211 15.5675 58.3459 15.5813V15.5827ZM71.8635 14.7551C70.8536 15.2425 68.7129 18.8619 68.7279 19.7483C69.9556 18.1924 70.9677 16.5089 71.8635 14.7551ZM67.4447 14.3366C66.7787 14.4635 65.5811 15.904 65.3611 16.7592C66.1833 16.0672 66.9356 15.3426 67.4447 14.3366Z" fill="#191919"/>
<path d="M64.2468 27.7029C64.0944 27.6376 63.9075 27.5912 63.7625 27.4882C63.3 27.1596 62.8458 26.8187 62.402 26.4677C62.0746 26.2087 62.0934 26.0463 62.4981 25.9171C64.2851 25.3456 66.0579 24.7146 67.8772 24.2569C70.2266 23.665 72.6038 23.1645 74.9886 22.7214C77.6496 22.2274 80.3436 21.9547 83.0572 21.8988C83.4897 21.8901 83.8479 22.0243 84.1024 22.3558C84.1955 22.4769 84.2789 22.6691 84.2436 22.7982C84.2165 22.8969 84.004 22.9934 83.8629 23.0115C82.8485 23.1406 81.8258 23.216 80.8159 23.372C79.0679 23.6418 77.32 23.9189 75.587 24.2641C72.9455 24.7907 70.3648 25.5414 67.8247 26.4154C66.802 26.7672 65.7959 27.1625 64.7815 27.5354C64.6193 27.5948 64.4511 27.6398 64.2468 27.7036V27.7029Z" fill="#191919"/>
<path d="M79.153 11.8535C78.3563 11.7802 78.0537 11.3305 78.4524 10.7053C79.0021 9.84359 79.5907 9.00366 80.1997 8.17896C80.5713 7.67558 80.8957 7.63496 81.4596 7.95411C81.7705 8.13036 82.0761 8.3262 82.3449 8.55613C82.6857 8.84916 82.6775 9.13204 82.3449 9.41999C81.5182 10.1381 80.69 10.8547 79.8423 11.5481C79.6568 11.6997 79.385 11.7541 79.153 11.8527V11.8535Z" fill="#191919"/>
<g clip-path="url(#clip2_2001_4913)">
<path d="M91.5566 14.5234C91.9995 14.5234 92.3592 14.8824 92.3594 15.3252C92.3594 15.7682 91.9996 16.1279 91.5566 16.1279C91.1138 16.1278 90.7549 15.7681 90.7549 15.3252C90.755 14.8825 91.1139 14.5236 91.5566 14.5234Z" fill="#191919" stroke="#191919" stroke-width="2"/>
<path fill-rule="evenodd" clip-rule="evenodd" d="M91.5573 14.1797L92.015 14.8935L91.5573 15.6093L91.0996 14.8935L91.5573 14.1797Z" fill="#F1EFF1"/>
<path d="M93.0047 15.3268C93.0047 15.3266 93.0047 15.3264 93.0047 15.3263H93.0047C93.0043 15.2884 92.9735 15.2578 92.9356 15.2578C92.8976 15.2578 92.8668 15.2884 92.8665 15.3263H92.8665C92.8665 16.0495 92.2802 16.6358 91.557 16.6358C90.8338 16.6358 90.2475 16.0495 90.2475 15.3263H90.2475C90.2472 15.2884 90.2164 15.2578 90.1785 15.2578C90.1405 15.2578 90.1097 15.2884 90.1094 15.3263H90.1094C90.1094 15.3264 90.1094 15.3266 90.1094 15.3268C90.1094 15.3268 90.1094 15.3269 90.1094 15.3269C90.1094 15.327 90.1094 15.327 90.1094 15.3271C90.1098 16.1262 90.7578 16.7739 91.557 16.7739C92.3563 16.7739 93.0042 16.1262 93.0047 15.3271C93.0047 15.327 93.0047 15.327 93.0047 15.3269C93.0047 15.3269 93.0047 15.3268 93.0047 15.3268Z" fill="#F1EFF1"/>
</g>
</g>
<defs>
<clipPath id="clip0_2001_4913">
<rect width="96" height="36" fill="white"/>
</clipPath>
<clipPath id="clip1_2001_4913">
<rect width="36" height="36" fill="white"/>
</clipPath>
<clipPath id="clip2_2001_4913">
<rect width="3.6041" height="3.6041" fill="white" transform="translate(89.7549 13.5234)"/>
</clipPath>
</defs>
</svg>
