<svg width="96" height="36" viewBox="0 0 96 36" fill="none" xmlns="http://www.w3.org/2000/svg">
<g clip-path="url(#clip0_2001_7114)">
<g clip-path="url(#clip1_2001_7114)">
<path d="M18 1C27.3888 1 35 8.61116 35 18C35 27.3888 27.3888 35 18 35C8.61116 35 1 27.3888 1 18C1 8.61116 8.61116 1 18 1Z" fill="#FDFDFD" stroke="#FDFDFD" stroke-width="2"/>
<path fill-rule="evenodd" clip-rule="evenodd" d="M17.9997 6.53906L22.5717 13.6688L17.9997 20.8191L13.4277 13.6688L17.9997 6.53906Z" fill="#191919"/>
<path d="M32.46 18.0052C32.46 18.0036 32.46 18.002 32.46 18.0004H32.4599C32.4567 17.6222 32.1491 17.3164 31.77 17.3164C31.391 17.3164 31.0834 17.6222 31.0802 18.0004H31.08C31.08 25.2243 25.2239 31.0804 18 31.0804C10.7762 31.0804 4.92004 25.2243 4.92004 18.0004H4.91992C4.91668 17.6222 4.60912 17.3164 4.23004 17.3164C3.85096 17.3164 3.5434 17.6222 3.54016 18.0004H3.54004C3.54004 18.002 3.54004 18.0036 3.54004 18.0052C3.54004 18.0056 3.54004 18.006 3.54004 18.0064C3.54004 18.0071 3.54004 18.0077 3.54004 18.0084C3.54436 25.9907 10.0167 32.4604 18 32.4604C25.9834 32.4604 32.4557 25.9907 32.46 18.0084C32.46 18.0077 32.46 18.0071 32.46 18.0064C32.46 18.006 32.46 18.0056 32.46 18.0052Z" fill="#191919"/>
</g>
<path d="M58.3454 15.5827C58.5181 15.3985 58.6923 15.2171 58.862 15.0307C59.9995 13.7788 61.1363 12.5254 62.2746 11.2743C62.3737 11.1655 62.4751 11.0559 62.5915 10.966C62.7071 10.8775 62.834 10.7876 62.9714 10.7433C63.3949 10.6077 64.5647 11.2866 64.6225 11.7153C64.6428 11.8668 64.5745 12.0489 64.4956 12.1903C63.2425 14.449 62.4578 16.8767 61.7175 19.321C61.7107 19.3421 61.7145 19.3667 61.7115 19.4226C62.0801 19.2079 62.376 18.9917 62.5111 18.5703C63.0683 16.8346 63.8942 15.2309 65.1954 13.8949C65.8855 13.1855 66.6926 12.6415 67.7498 12.5994C68.4834 12.5704 68.9685 13.0368 69.0165 13.7469C69.0901 14.8189 68.542 15.6538 67.8159 16.3436C66.8571 17.2546 65.8074 18.0786 64.7719 18.9105C64.5031 19.1267 64.3192 19.3392 64.2771 19.6735C64.2441 19.9361 64.1525 20.1965 64.157 20.4576C64.16 20.6281 64.2869 20.7971 64.359 20.9661C64.5001 20.9102 64.6773 20.8899 64.7772 20.7935C66.0176 19.5981 67.1732 18.3389 68.111 16.8955C68.7732 15.8757 69.5053 14.8965 70.2374 13.9217C70.4687 13.6142 70.7968 13.3726 71.0896 13.1108C71.441 12.7974 71.8457 12.6415 72.327 12.7844C72.6124 12.8693 72.6642 12.6582 72.749 12.4877C73.4969 10.9892 74.2274 9.4827 74.9978 7.99433C75.3042 7.40246 75.6856 6.84613 76.0528 6.28545C76.3674 5.80529 76.7961 5.7226 77.3007 6.02941C77.5537 6.18318 77.794 6.35799 78.0328 6.53352C78.5216 6.89255 78.5584 7.24651 78.2385 7.74989C77.3104 9.20925 76.3433 10.649 75.5001 12.1534C74.3874 14.1378 73.418 16.1913 72.8722 18.4035C72.8046 18.6784 72.7813 18.9635 72.737 19.2434L72.8429 19.2978C73.0283 19.0976 73.2326 18.9112 73.3962 18.6951C74.473 17.2734 75.5534 15.854 76.6024 14.4127C76.887 14.0225 77.0762 13.5656 77.2917 13.1311C77.6205 12.4674 78.6034 12.1476 79.2799 12.495C79.6681 12.6944 79.783 13.0622 79.5818 13.5249C79.0749 14.6927 78.5576 15.8562 78.0523 17.0247C77.8841 17.4127 77.7384 17.8102 77.6378 18.2505C77.7557 18.1424 77.8743 18.0358 77.9907 17.927C79.3107 16.6932 80.5887 15.4122 81.965 14.2401C82.9253 13.4227 84.0148 12.7452 85.0585 12.0213C85.6637 11.6014 86.3327 11.5455 87.013 11.8364C87.456 12.0257 87.9012 12.223 88.3089 12.4725C88.6851 12.7024 88.7917 13.2109 88.6243 13.6084C88.5042 13.8941 88.1708 14.0218 87.9613 13.789C87.3809 13.1427 86.8635 13.501 86.3575 13.8368C84.6996 14.9372 83.3098 16.2921 82.2608 17.9589C82.1054 18.2062 81.9545 18.4565 81.8141 18.7118C81.7547 18.8198 81.727 18.9446 81.6849 19.0614C81.7202 19.086 81.7555 19.11 81.7908 19.1346C82.2368 18.7045 82.7113 18.2983 83.1243 17.8399C84.1012 16.757 85.054 15.6545 86.0053 14.5506C86.2689 14.2452 86.5872 14.1763 86.9416 14.3076C87.1819 14.3961 87.4072 14.539 87.6144 14.6891C87.8764 14.8784 87.9328 15.1374 87.8922 15.4601C87.7345 16.7012 87.6039 17.9451 87.4755 19.1898C87.459 19.353 87.498 19.5263 87.5356 19.6902C87.6204 20.0594 87.7999 20.1806 88.1851 20.0964C89.7048 19.7642 91.2215 19.4204 92.7397 19.0817C92.9102 19.044 93.0821 19.0135 93.2533 18.9801C93.9186 18.8503 94.4862 19.0099 94.9517 19.4987C95.2138 19.7736 95.5164 20.0152 95.7574 20.3053C96.2087 20.8493 96.0112 21.3404 95.3009 21.4267C94.1859 21.5616 93.0671 21.6646 91.9498 21.7777C90.6103 21.9134 89.2715 22.049 87.9313 22.1759C87.6091 22.2064 87.281 22.2289 86.9589 22.2086C86.2749 22.1643 85.8371 21.7915 85.6081 21.1779C85.2747 20.2828 85.2815 19.3573 85.3468 18.4267C85.3618 18.2142 85.3761 18.0017 85.316 17.7507C85.2192 17.8501 85.1253 17.9516 85.0262 18.0488C84.2551 18.8046 83.4945 19.5713 82.7038 20.3068C82.4568 20.5367 82.1347 20.6977 81.8313 20.8616C81.0775 21.2693 80.1652 20.9044 79.7372 20.3314C79.4819 19.9905 79.5532 19.6112 79.6524 19.2514C79.7665 18.8358 79.9317 18.434 80.0969 17.9654C79.2972 18.7995 78.5403 19.5959 77.7737 20.3836C77.4741 20.6912 77.1625 20.9893 76.8397 21.2736C76.4447 21.6211 75.9897 21.6515 75.5279 21.3889C75.1119 21.1518 74.937 20.776 75.0744 20.2712C75.2982 19.4465 75.555 18.6305 75.7847 17.8559C75.1435 18.6791 74.4835 19.5524 73.7934 20.4025C73.4481 20.8283 73.0644 21.2294 72.6657 21.6102C72.3556 21.9061 71.9591 22.0316 71.5289 21.8619C71.0799 21.6849 70.9124 21.3164 70.9057 20.8754C70.8959 20.2879 70.9034 19.7004 70.8373 19.0773C70.757 19.2014 70.6872 19.3334 70.5948 19.4487C70.0076 20.1798 69.4287 20.9182 68.816 21.629C68.6659 21.8038 68.4136 21.9148 68.1868 22.0069C67.3812 22.3355 66.7354 21.9765 66.5965 21.0771C66.4051 21.2809 66.2541 21.4651 66.0792 21.6247C65.6076 22.0533 65.1459 22.4965 64.6383 22.8831C64.4055 23.0608 64.0842 23.1856 63.7876 23.2211C62.7927 23.3415 62.1147 22.7221 62.0599 21.6769C62.0388 21.2714 62.0561 20.8645 62.0561 20.4156C61.5988 20.5751 61.2632 20.7369 61.1588 21.2221C60.7804 22.9789 60.3622 24.7269 59.9838 26.4829C59.9537 26.6207 60.0731 26.8543 60.1985 26.9457C60.7369 27.3374 61.3075 27.687 61.8594 28.062C62.3489 28.3949 62.3182 28.6698 61.7866 28.9382C60.89 29.3908 60.0033 29.8629 59.1015 30.3061C58.5196 30.5926 57.307 30.4171 56.8519 29.9667C56.7168 29.8332 56.6252 29.5692 56.6545 29.3857C56.7844 28.59 56.9128 27.7878 57.138 27.0146C57.9009 24.394 58.693 21.7814 59.5002 19.1731C59.7675 18.3078 60.1137 17.4657 60.4223 16.6119C60.4703 16.4799 60.5086 16.345 60.5507 16.2108C60.5244 16.1949 60.4981 16.1789 60.4711 16.163C60.013 16.6823 59.5528 17.1995 59.0985 17.7217C58.2463 18.7009 57.4023 19.6873 56.5448 20.6629C56.2287 21.0227 55.8398 21.2758 55.3232 21.278C54.7195 21.2802 54.4755 20.9842 54.6332 20.4192C55.1723 18.4884 55.7174 16.559 56.2588 14.6289C56.3001 14.4824 56.3286 14.333 56.2843 14.1502C56.0876 14.436 55.8856 14.7174 55.6964 15.0068C54.2397 17.2328 52.9167 19.5314 51.7454 21.909C51.3114 22.7903 50.927 23.6955 50.5365 24.5963C50.255 25.2462 49.9246 25.4247 49.2496 25.1723C48.7983 25.004 48.3568 24.7936 47.9461 24.5477C47.5361 24.3019 47.461 23.9936 47.6938 23.5838C48.7502 21.7219 49.8142 19.8643 50.8924 18.014C51.4563 17.0471 52.0547 16.0991 52.6359 15.141C52.6967 15.0416 52.7418 14.9328 52.8379 14.7413C52.5766 14.7899 52.3986 14.8088 52.2297 14.8559C49.8187 15.5254 47.4092 16.1978 44.9997 16.8723C44.3645 17.05 43.7353 17.2466 43.0986 17.4192C42.5587 17.5665 42.2208 17.4519 41.9708 16.9797C41.6419 16.3581 41.3423 15.7205 41.0675 15.0742C40.8851 14.6449 41.0773 14.3105 41.5541 14.2024C42.4881 13.9899 43.4274 13.8006 44.3668 13.6084C47.7952 12.9084 51.2236 12.2078 54.655 11.5194C55.0289 11.4447 55.2661 11.2619 55.4674 10.9573C56.5238 9.36157 57.6005 7.77745 58.663 6.18536C58.9115 5.81254 59.1743 5.50428 59.7022 5.56158C60.6265 5.66095 61.2902 6.67713 60.9982 7.51416C60.1227 10.0274 59.2637 12.5458 58.4002 15.0626C58.3469 15.2186 58.3139 15.3811 58.2718 15.5406C58.2966 15.5544 58.3206 15.5675 58.3454 15.5813V15.5827ZM71.863 14.7551C70.8531 15.2425 68.7124 18.8619 68.7274 19.7483C69.9551 18.1924 70.9672 16.5089 71.863 14.7551ZM67.4442 14.3366C66.7782 14.4635 65.5806 15.904 65.3606 16.7592C66.1828 16.0672 66.9352 15.3426 67.4442 14.3366Z" fill="#FDFDFD"/>
<path d="M64.2473 27.7029C64.0949 27.6376 63.9079 27.5912 63.763 27.4882C63.3005 27.1596 62.8462 26.8187 62.4025 26.4677C62.0751 26.2087 62.0939 26.0463 62.4986 25.9171C64.2856 25.3456 66.0584 24.7146 67.8777 24.2569C70.2271 23.665 72.6043 23.1645 74.989 22.7214C77.6501 22.2274 80.3441 21.9547 83.0577 21.8988C83.4902 21.8901 83.8484 22.0243 84.1029 22.3558C84.196 22.4769 84.2793 22.6691 84.2441 22.7982C84.217 22.8969 84.0045 22.9934 83.8634 23.0115C82.849 23.1406 81.8263 23.216 80.8164 23.372C79.0684 23.6418 77.3204 23.9189 75.5875 24.2641C72.946 24.7907 70.3653 25.5414 67.8251 26.4154C66.8025 26.7672 65.7963 27.1625 64.7819 27.5354C64.6198 27.5948 64.4516 27.6398 64.2473 27.7036V27.7029Z" fill="#FDFDFD"/>
<path d="M79.153 11.8496C78.3563 11.7763 78.0537 11.3266 78.4524 10.7014C79.0021 9.83968 79.5907 8.99975 80.1997 8.17505C80.5713 7.67168 80.8957 7.63106 81.4596 7.9502C81.7705 8.12646 82.0761 8.32229 82.3449 8.55222C82.6857 8.84526 82.6775 9.12813 82.3449 9.41609C81.5182 10.1342 80.69 10.8508 79.8423 11.5442C79.6568 11.6958 79.385 11.7502 79.153 11.8488V11.8496Z" fill="#FDFDFD"/>
<g clip-path="url(#clip2_2001_7114)">
<path d="M91.5562 14.5234C91.999 14.5234 92.3587 14.8824 92.3589 15.3252C92.3589 15.7682 91.9991 16.1279 91.5562 16.1279C91.1133 16.1278 90.7544 15.7681 90.7544 15.3252C90.7546 14.8825 91.1134 14.5236 91.5562 14.5234Z" fill="#FDFDFD" stroke="#FDFDFD" stroke-width="2"/>
<path fill-rule="evenodd" clip-rule="evenodd" d="M91.5564 14.1797L92.0141 14.8935L91.5564 15.6093L91.0986 14.8935L91.5564 14.1797Z" fill="#121212"/>
<path d="M93.0042 15.3268C93.0042 15.3266 93.0042 15.3264 93.0042 15.3263H93.0042C93.0038 15.2884 92.973 15.2578 92.9351 15.2578C92.8971 15.2578 92.8664 15.2884 92.866 15.3263H92.866C92.866 16.0495 92.2797 16.6358 91.5565 16.6358C90.8333 16.6358 90.247 16.0495 90.247 15.3263H90.247C90.2467 15.2884 90.2159 15.2578 90.178 15.2578C90.14 15.2578 90.1092 15.2884 90.1089 15.3263H90.1089C90.1089 15.3264 90.1089 15.3266 90.1089 15.3268C90.1089 15.3268 90.1089 15.3269 90.1089 15.3269C90.1089 15.327 90.1089 15.327 90.1089 15.3271C90.1093 16.1262 90.7573 16.7739 91.5565 16.7739C92.3558 16.7739 93.0037 16.1262 93.0042 15.3271C93.0042 15.327 93.0042 15.327 93.0042 15.3269C93.0042 15.3269 93.0042 15.3268 93.0042 15.3268Z" fill="#121212"/>
</g>
</g>
<defs>
<clipPath id="clip0_2001_7114">
<rect width="96" height="36" fill="white"/>
</clipPath>
<clipPath id="clip1_2001_7114">
<rect width="36" height="36" fill="white"/>
</clipPath>
<clipPath id="clip2_2001_7114">
<rect width="3.6041" height="3.6041" fill="white" transform="translate(89.7544 13.5234)"/>
</clipPath>
</defs>
</svg>
