<svg width="36" height="36" viewBox="0 0 36 36" fill="none" xmlns="http://www.w3.org/2000/svg">
<g clip-path="url(#clip0_265_19584)">
<path d="M18 1C27.3888 1 35 8.61116 35 18C35 27.3888 27.3888 35 18 35C8.61116 35 1 27.3888 1 18C1 8.61116 8.61116 1 18 1Z" fill="#FDFDFD" stroke="#FDFDFD" stroke-width="2"/>
<path fill-rule="evenodd" clip-rule="evenodd" d="M17.9997 6.53906L22.5717 13.6688L17.9997 20.8191L13.4277 13.6688L17.9997 6.53906Z" fill="#191919"/>
<path d="M32.46 18.0052C32.46 18.0036 32.46 18.002 32.46 18.0004H32.4599C32.4567 17.6222 32.1491 17.3164 31.77 17.3164C31.391 17.3164 31.0834 17.6222 31.0802 18.0004H31.08C31.08 25.2243 25.2239 31.0804 18 31.0804C10.7762 31.0804 4.92004 25.2243 4.92004 18.0004H4.91992C4.91668 17.6222 4.60912 17.3164 4.23004 17.3164C3.85096 17.3164 3.5434 17.6222 3.54016 18.0004H3.54004C3.54004 18.002 3.54004 18.0036 3.54004 18.0052C3.54004 18.0056 3.54004 18.006 3.54004 18.0064C3.54004 18.0071 3.54004 18.0077 3.54004 18.0084C3.54436 25.9907 10.0167 32.4604 18 32.4604C25.9834 32.4604 32.4557 25.9907 32.46 18.0084C32.46 18.0077 32.46 18.0071 32.46 18.0064C32.46 18.006 32.46 18.0056 32.46 18.0052Z" fill="#191919"/>
</g>
<defs>
<clipPath id="clip0_265_19584">
<rect width="36" height="36" fill="white"/>
</clipPath>
</defs>
</svg>
