<svg width="171" height="171" viewBox="0 0 171 171" fill="none" xmlns="http://www.w3.org/2000/svg">
<path d="M85.293 0C132.399 0 170.586 38.187 170.586 85.293C170.586 132.399 132.399 170.586 85.293 170.586C38.187 170.586 0 132.399 0 85.293C0 38.187 38.187 0 85.293 0ZM102.265 61.6289C101.484 60.8479 100.218 60.8479 99.4365 61.6289C98.6555 62.41 98.6555 63.676 99.4365 64.457L116.771 81.792H48.9902C47.8857 81.792 46.9902 82.6874 46.9902 83.792C46.9904 84.8964 47.8858 85.792 48.9902 85.792H116.769L99.4365 103.124C98.6556 103.905 98.6555 105.171 99.4365 105.952C100.218 106.733 101.484 106.733 102.265 105.952L122.961 85.2549C123.354 84.8897 123.601 84.3707 123.602 83.792C123.602 83.2278 123.367 82.7191 122.991 82.3555L102.265 61.6289Z" fill="#FDFDFD"/>
</svg>
