<svg width="64" height="64" viewBox="0 0 64 64" fill="none" xmlns="http://www.w3.org/2000/svg">
<g clip-path="url(#clip0_98_457)">
<path d="M37.2073 9.60541C42.8383 12.714 46.4482 18.064 47.5424 23.9257C47.771 23.9375 47.9991 23.96 48.2267 23.9933C49.0889 24.1148 49.9134 24.3953 50.6996 24.8342C51.4826 25.2677 52.1964 25.8669 52.8401 26.6327L50.8312 27.7926C50.3788 27.2834 49.8773 26.8961 49.3278 26.6302C48.7838 26.3613 48.2157 26.1993 47.6232 26.1455C47.0329 26.0831 46.4398 26.123 45.845 26.2648C45.2502 26.4067 44.6773 26.637 44.1266 26.9549C43.1222 27.5347 42.3581 28.3138 41.8358 29.2921C41.3188 30.2674 41.1056 31.3886 41.1956 32.6544C41.291 33.9169 41.7533 35.2666 42.5826 36.7029C43.4118 38.1391 44.3494 39.2137 45.3949 39.9276C46.4461 40.6383 47.5236 41.0147 48.6267 41.0546C49.7352 41.0914 50.7917 40.8196 51.7961 40.2398C52.3469 39.9217 52.8325 39.5405 53.2528 39.0963C53.6731 38.652 54.0052 38.1612 54.2495 37.6241C54.4962 37.0785 54.6398 36.5026 54.6788 35.8968C54.7201 35.2826 54.6346 34.6551 54.423 34.0143L56.432 32.8544C56.7702 33.7894 56.9328 34.7076 56.9198 35.6079C56.9067 36.5081 56.7387 37.3649 56.4159 38.1776C56.0901 38.9847 55.6272 39.723 55.0279 40.393C54.4337 41.06 53.7183 41.6361 52.8812 42.1194C51.4664 42.9362 50.0082 43.3162 48.5074 43.261C47.0068 43.2058 45.5727 42.7237 44.2051 41.814C43.8219 41.5591 43.4539 41.2698 43.0987 40.9489C42.6466 41.4923 42.1707 42.0085 41.6723 42.4962C41.7619 43.0926 41.814 43.7206 41.8267 44.3807C41.865 46.3757 41.5426 48.0998 40.8595 49.5536C40.1764 51.0011 39.163 52.1246 37.8189 52.9238C36.4745 53.7167 34.8295 54.1324 32.8844 54.1697L26.9733 54.2831L26.8598 48.3865C25.6894 48.3672 24.5151 48.2453 23.3481 48.023L22.2604 55.1015L20.1316 53.9263L21.1917 47.4918C19.8381 47.0786 18.5068 46.5216 17.2202 45.8114C16.3204 45.3146 15.4722 44.7592 14.677 44.1542L9.97746 48.3208L7.84866 47.1456L12.9695 42.7029C6.30476 36.3797 4.46388 26.1335 9.11145 17.7146C14.6308 7.71732 27.2097 4.08649 37.2073 9.60541ZM36.436 37.9078C35.4206 37.3223 34.1645 37.044 32.6682 37.0727L28.9648 37.1433L29.2537 52.1811L32.6946 52.1151C34.278 52.0847 35.5849 51.754 36.6143 51.1232C37.6437 50.4922 38.4031 49.6072 38.8927 48.469C39.3823 47.3307 39.613 45.9824 39.5831 44.4238C39.5534 42.8777 39.2751 41.5513 38.7487 40.445C38.2223 39.3326 37.4511 38.487 36.436 37.9078ZM16.4397 42.5918C17.0388 43.0245 17.6701 43.4272 18.334 43.7937C19.3856 44.3742 20.4692 44.8385 21.5695 45.195L22.9135 37.042L22.7826 36.9698L16.4397 42.5918ZM36.0935 11.6231C27.2102 6.71932 16.0333 9.94549 11.1291 18.8285C6.963 26.3752 8.66404 35.5797 14.719 41.1845L23.264 33.7742L25.3603 34.9314L23.6976 45.7451C24.7333 45.9472 25.7762 46.0575 26.8162 46.079L26.6058 35.1304L32.7784 35.0119C34.6362 34.9762 36.2332 35.3292 37.5695 36.0706C38.9058 36.8058 39.9402 37.8807 40.6721 39.2948C40.7748 39.4923 40.8699 39.696 40.9589 39.9049C41.1583 39.6796 41.3527 39.4485 41.5422 39.2118C41.2269 38.7831 40.9246 38.3211 40.6381 37.8248C39.628 36.0752 39.0707 34.3805 38.9668 32.7414C38.8628 31.1024 39.1622 29.6192 39.8646 28.2921C40.5672 26.9648 41.6266 25.8921 43.0415 25.0752C43.7607 24.66 44.4939 24.3565 45.2409 24.1644C44.2273 19.0233 41.0369 14.3521 36.0935 11.6231Z" fill="#FDFDFD"/>
</g>
<defs>
<clipPath id="clip0_98_457">
<rect width="64" height="64" fill="white"/>
</clipPath>
</defs>
</svg>
