<svg width="161" height="36" viewBox="0 0 161 36" fill="none" xmlns="http://www.w3.org/2000/svg">
<g clip-path="url(#clip0_2001_11812)">
<path d="M18 1C27.3888 1 35 8.61116 35 18C35 27.3888 27.3888 35 18 35C8.61116 35 1 27.3888 1 18C1 8.61116 8.61116 1 18 1Z" fill="#FDFDFD" stroke="#FDFDFD" stroke-width="2"/>
<path fill-rule="evenodd" clip-rule="evenodd" d="M18 6.53906L22.572 13.6688L18 20.8191L13.428 13.6688L18 6.53906Z" fill="#191919"/>
<path d="M32.46 18.0052C32.46 18.0036 32.46 18.002 32.46 18.0004H32.4599C32.4567 17.6222 32.1491 17.3164 31.77 17.3164C31.391 17.3164 31.0834 17.6222 31.0802 18.0004H31.08C31.08 25.2243 25.2239 31.0804 18 31.0804C10.7762 31.0804 4.92004 25.2243 4.92004 18.0004H4.91992C4.91668 17.6222 4.60912 17.3164 4.23004 17.3164C3.85096 17.3164 3.5434 17.6222 3.54016 18.0004H3.54004C3.54004 18.002 3.54004 18.0036 3.54004 18.0052C3.54004 18.0056 3.54004 18.006 3.54004 18.0064C3.54004 18.0071 3.54004 18.0077 3.54004 18.0084C3.54436 25.9907 10.0167 32.4604 18 32.4604C25.9834 32.4604 32.4557 25.9907 32.46 18.0084C32.46 18.0077 32.46 18.0071 32.46 18.0064C32.46 18.006 32.46 18.0056 32.46 18.0052Z" fill="#191919"/>
</g>
<path fill-rule="evenodd" clip-rule="evenodd" d="M92.7875 25.0808L92.3948 25.4696C91.4802 26.3751 90.7362 26.7622 89.564 27.249C88.3847 27.7464 87.3033 27.9998 85.9396 27.9998C84.5865 27.9998 83.3041 27.7506 82.097 27.2495L82.0924 27.2476L82.0878 27.2456C80.9103 26.7296 79.8722 26.039 78.9777 25.1727L78.9735 25.1687L78.9695 25.1645C78.0942 24.2787 77.3946 23.2488 76.8713 22.0783L76.8691 22.0733L76.867 22.0684C76.3509 20.8499 76.1049 19.1703 76.1049 17.8443C76.1049 16.496 76.3582 15.2265 76.8683 14.0418L76.8691 14.0398L76.87 14.0378C77.393 12.8488 78.0928 11.8084 78.9695 10.9212L78.9715 10.9191L78.9736 10.9171C79.8696 10.03 80.9106 9.33709 82.0924 8.83814C83.2889 8.32248 84.3711 8.05859 85.738 8.05859C87.0996 8.05859 88.3636 8.33836 89.5627 8.83622C90.7638 9.33487 91.8159 10.0282 92.7138 10.9171L93.1106 11.3099L91.0268 13.33L90.6691 12.9854C90.0375 12.377 89.2917 11.8919 88.4263 11.532L88.4205 11.5296L88.4149 11.5271C87.5649 11.1493 86.8692 10.9692 85.9396 10.9692C85.0151 10.9692 84.1367 11.1552 83.3002 11.5271L83.2979 11.5281L83.2957 11.5291C82.4683 11.8874 81.7285 12.3814 81.0736 13.0127L81.0735 13.0128C80.4438 13.6194 79.9396 14.3454 79.5615 15.1963L79.5606 15.1982L79.5598 15.2001C79.188 16.0197 79.0011 16.899 79.0011 17.8443C79.0011 18.7817 79.1884 20.0354 79.5351 20.8377C79.8952 21.6519 80.383 22.3815 81.0009 23.0283C81.6344 23.6543 82.3719 24.1555 83.2172 24.5313C84.0503 24.9015 84.9557 25.0891 85.9396 25.0891C86.8562 25.0891 87.5576 24.9246 88.4304 24.5794C89.3226 24.2083 89.731 24.0031 90.34 23.3839L90.7018 23.016L92.7875 25.0808Z" fill="#FDFDFD"/>
<path fill-rule="evenodd" clip-rule="evenodd" d="M55.4415 27.8762L54.101 24.4742C51.2124 26.03 47.6391 26.0489 44.7365 24.5455L43.317 27.8762H40.1031L47.6475 8.06641H51.1523L58.6649 27.8762H55.4415ZM45.6746 21.7084C47.6093 23.1926 50.6088 23.2735 52.6242 21.8476L52.6322 21.8419L53.1063 21.5326L49.4013 11.7092L45.6746 21.7084Z" fill="#FDFDFD"/>
<path fill-rule="evenodd" clip-rule="evenodd" d="M65.1546 7.95312L65.1582 7.95318C66.4998 7.9727 67.777 8.2365 68.9861 8.74619C70.2086 9.25365 71.2796 9.95863 72.1938 10.8622C73.1281 11.7483 73.8633 12.8014 74.3985 14.0169C74.9391 15.2259 75.2073 16.5307 75.2073 17.9245C75.2073 19.3008 74.9387 20.6041 74.3999 21.8288C73.8837 23.0265 73.1679 24.079 72.2542 24.983L72.2522 24.985L72.2502 24.987C71.3367 25.8711 70.2675 26.5751 69.0475 27.1008L69.0457 27.1016L69.0439 27.1023C67.8303 27.6141 66.5311 27.868 65.151 27.868H59.5198V7.95312H65.1546ZM71.7196 15.2071L71.717 15.2011C71.3485 14.3328 70.8422 13.5913 70.198 12.9712L70.1929 12.9663L70.1879 12.9612C69.5611 12.3238 68.8094 11.8206 67.9262 11.4536L67.9206 11.4513L67.9151 11.4488C67.0593 11.0686 66.1397 10.8769 65.151 10.8769H62.4314V24.9443H65.1465C66.1195 24.9262 67.0343 24.7338 67.8947 24.3689C68.762 24.0011 69.5181 23.5046 70.1672 22.8804C70.8168 22.237 71.3348 21.4899 71.7223 20.636C72.1038 19.7953 72.2956 18.8936 72.2956 17.9245C72.2956 16.9555 72.1038 16.0537 71.7223 15.2131L71.7196 15.2071Z" fill="#FDFDFD"/>
<path d="M117.049 15.2815C117.246 15.0743 117.446 14.8703 117.64 14.6605C118.943 13.2521 120.245 11.8421 121.549 10.4345C121.663 10.3121 121.779 10.1889 121.912 10.0877C122.045 9.98817 122.19 9.88698 122.347 9.83721C122.833 9.68462 124.173 10.4484 124.239 10.9306C124.262 11.1012 124.184 11.306 124.093 11.4651C122.658 14.0061 121.759 16.7372 120.911 19.4871C120.903 19.5108 120.908 19.5386 120.904 19.6014C121.327 19.3599 121.665 19.1167 121.82 18.6426C122.458 16.6899 123.405 14.8858 124.895 13.3827C125.685 12.5847 126.61 11.9727 127.821 11.9253C128.661 11.8927 129.217 12.4174 129.272 13.2162C129.356 14.4223 128.728 15.3615 127.897 16.1375C126.798 17.1624 125.596 18.0893 124.41 19.0253C124.102 19.2685 123.891 19.5075 123.843 19.8837C123.805 20.1791 123.7 20.4721 123.706 20.7658C123.709 20.9576 123.854 21.1477 123.937 21.3378C124.099 21.275 124.302 21.2521 124.416 21.1436C125.837 19.7989 127.16 18.3823 128.235 16.7585C128.993 15.6112 129.832 14.5096 130.67 13.4129C130.935 13.0669 131.311 12.7952 131.647 12.5006C132.049 12.1481 132.513 11.9727 133.064 12.1334C133.391 12.2289 133.45 11.9914 133.547 11.7997C134.404 10.1138 135.241 8.41901 136.123 6.74459C136.474 6.07874 136.911 5.45287 137.332 4.82211C137.692 4.28192 138.183 4.1889 138.761 4.53407C139.051 4.70706 139.326 4.90371 139.6 5.10118C140.16 5.5051 140.202 5.9033 139.835 6.4696C138.772 8.11138 137.664 9.73113 136.699 11.4235C135.424 13.6561 134.314 15.9661 133.688 18.4549C133.611 18.7642 133.584 19.0849 133.534 19.3998L133.655 19.461C133.867 19.2358 134.101 19.0261 134.289 18.7829C135.522 17.1836 136.76 15.5867 137.961 13.9653C138.287 13.5263 138.504 13.0122 138.751 12.5235C139.127 11.7768 140.253 11.417 141.028 11.8078C141.473 12.0322 141.604 12.4459 141.374 12.9665C140.793 14.2803 140.201 15.5891 139.622 16.9037C139.429 17.3403 139.262 17.7874 139.147 18.2827C139.282 18.1612 139.418 18.0412 139.551 17.9188C141.063 16.5308 142.527 15.0898 144.104 13.7711C145.204 12.8515 146.452 12.0893 147.647 11.275C148.34 10.8025 149.107 10.7397 149.886 11.0669C150.393 11.2799 150.903 11.5018 151.37 11.7825C151.801 12.0412 151.924 12.6132 151.732 13.0604C151.594 13.3819 151.212 13.5255 150.972 13.2636C150.307 12.5365 149.715 12.9396 149.135 13.3174C147.236 14.5553 145.644 16.0796 144.443 17.9547C144.265 18.233 144.092 18.5145 143.931 18.8017C143.863 18.9233 143.831 19.0636 143.783 19.195C143.823 19.2228 143.864 19.2497 143.904 19.2774C144.415 18.7936 144.959 18.3366 145.432 17.8209C146.551 16.6026 147.642 15.3623 148.732 14.1204C149.034 13.7768 149.398 13.6993 149.804 13.847C150.08 13.9466 150.338 14.1073 150.575 14.2762C150.875 14.4892 150.94 14.7805 150.893 15.1436C150.713 16.5398 150.563 17.9392 150.416 19.3395C150.397 19.5231 150.442 19.7181 150.485 19.9025C150.582 20.3178 150.787 20.4541 151.229 20.3594C152.969 19.9857 154.707 19.5989 156.446 19.2179C156.641 19.1754 156.838 19.1412 157.034 19.1036C157.796 18.9576 158.446 19.1371 158.98 19.6871C159.28 19.9963 159.626 20.2681 159.902 20.5944C160.419 21.2064 160.193 21.7589 159.379 21.856C158.102 22.0078 156.821 22.1236 155.541 22.2509C154.007 22.4035 152.473 22.5561 150.938 22.6989C150.569 22.7332 150.193 22.7585 149.824 22.7356C149.041 22.6858 148.539 22.2664 148.277 21.5761C147.895 20.5692 147.903 19.5279 147.978 18.481C147.995 18.2419 148.011 18.0029 147.942 17.7205C147.831 17.8323 147.724 17.9466 147.61 18.0559C146.727 18.9062 145.856 19.7687 144.95 20.5961C144.667 20.8548 144.298 21.0359 143.951 21.2203C143.087 21.6789 142.042 21.2685 141.552 20.6238C141.26 20.2403 141.341 19.8135 141.455 19.4088C141.585 18.9412 141.775 18.4892 141.964 17.9621C141.048 18.9004 140.181 19.7964 139.303 20.6826C138.96 21.0286 138.603 21.3639 138.233 21.6838C137.781 22.0747 137.259 22.1089 136.73 21.8135C136.254 21.5467 136.054 21.124 136.211 20.5561C136.467 19.6283 136.761 18.7103 137.025 17.8388C136.29 18.765 135.534 19.7474 134.744 20.7038C134.348 21.1828 133.909 21.634 133.452 22.0624C133.097 22.3953 132.643 22.5365 132.15 22.3456C131.635 22.1465 131.444 21.7319 131.436 21.2358C131.425 20.5749 131.433 19.9139 131.358 19.213C131.266 19.3525 131.186 19.501 131.08 19.6308C130.407 20.4533 129.744 21.284 129.042 22.0836C128.87 22.2803 128.581 22.4051 128.322 22.5088C127.399 22.8784 126.659 22.4745 126.5 21.4627C126.281 21.692 126.108 21.8992 125.907 22.0787C125.367 22.561 124.838 23.0596 124.257 23.4945C123.99 23.6944 123.622 23.8348 123.282 23.8747C122.143 24.0102 121.366 23.3133 121.303 22.1375C121.279 21.6814 121.299 21.2236 121.299 20.7185C120.775 20.898 120.391 21.08 120.271 21.6259C119.838 23.6022 119.359 25.5687 118.925 27.5443C118.891 27.6993 119.028 27.9621 119.171 28.0649C119.788 28.5055 120.442 28.8988 121.074 29.3207C121.634 29.6952 121.599 30.0045 120.99 30.3064C119.963 30.8156 118.948 31.3468 117.915 31.8454C117.248 32.1677 115.859 31.9702 115.338 31.4635C115.183 31.3133 115.078 31.0163 115.112 30.8099C115.261 29.9147 115.408 29.0122 115.666 28.1424C116.539 25.1942 117.447 22.255 118.371 19.3207C118.678 18.3472 119.074 17.3998 119.428 16.4394C119.483 16.2909 119.526 16.1391 119.575 15.9882C119.545 15.9702 119.514 15.9523 119.483 15.9343C118.959 16.5186 118.432 17.1004 117.911 17.6879C116.935 18.7895 115.968 19.8992 114.986 20.9967C114.624 21.4015 114.179 21.6862 113.587 21.6887C112.895 21.6911 112.616 21.3582 112.796 20.7226C113.414 18.5504 114.038 16.3798 114.658 14.2085C114.706 14.0437 114.738 13.8756 114.688 13.6699C114.462 13.9914 114.231 14.308 114.014 14.6336C112.346 17.1379 110.83 19.7238 109.489 22.3986C108.991 23.39 108.551 24.4084 108.104 25.4219C107.781 26.153 107.403 26.3537 106.63 26.0698C106.113 25.8805 105.607 25.6438 105.137 25.3672C104.667 25.0906 104.581 24.7438 104.848 24.2827C106.058 22.1881 107.277 20.0983 108.512 18.0167C109.157 16.929 109.843 15.8625 110.509 14.7846C110.578 14.6728 110.63 14.5504 110.74 14.335C110.441 14.3896 110.237 14.4109 110.043 14.4639C107.282 15.2171 104.522 15.9735 101.762 16.7324C101.034 16.9323 100.313 17.1534 99.5841 17.3476C98.9657 17.5133 98.5786 17.3843 98.2922 16.8531C97.9155 16.1538 97.5724 15.4366 97.2576 14.7095C97.0486 14.2264 97.2688 13.8503 97.8149 13.7287C98.8848 13.4896 99.9608 13.2766 101.037 13.0604C104.964 12.2729 108.891 11.4847 112.821 10.7103C113.25 10.6263 113.521 10.4206 113.752 10.0779C114.962 8.28274 116.195 6.50061 117.412 4.7095C117.697 4.29008 117.998 3.94329 118.603 4.00775C119.661 4.11954 120.422 5.26275 120.087 6.2044C119.084 9.03182 118.1 11.865 117.111 14.6964C117.05 14.8719 117.012 15.0547 116.964 15.2342C116.993 15.2497 117.02 15.2644 117.049 15.2799V15.2815ZM132.532 14.3505C131.376 14.8988 128.924 18.9706 128.941 19.9678C130.347 18.2175 131.506 16.3235 132.532 14.3505ZM127.471 13.8796C126.708 14.0224 125.336 15.643 125.084 16.6051C126.026 15.8266 126.888 15.0114 127.471 13.8796Z" fill="#FDFDFD"/>
<path d="M123.809 28.9167C123.634 28.8433 123.42 28.7911 123.254 28.6752C122.724 28.3056 122.204 27.922 121.696 27.5271C121.321 27.2358 121.342 27.053 121.806 26.9078C123.853 26.2648 125.883 25.5549 127.967 25.04C130.658 24.3741 133.381 23.8111 136.113 23.3125C139.161 22.7568 142.247 22.45 145.355 22.3872C145.851 22.3774 146.261 22.5283 146.553 22.9012C146.659 23.0375 146.755 23.2538 146.714 23.399C146.683 23.51 146.44 23.6185 146.278 23.6389C145.116 23.7841 143.945 23.869 142.788 24.0444C140.786 24.348 138.784 24.6597 136.798 25.0481C133.773 25.6405 130.817 26.4851 127.907 27.4684C126.736 27.8641 125.583 28.3088 124.421 28.7282C124.235 28.7952 124.043 28.8458 123.809 28.9176V28.9167Z" fill="#FDFDFD"/>
<path d="M140.883 11.0812C139.97 10.9988 139.624 10.4929 140.08 9.78953C140.71 8.82013 141.384 7.87521 142.082 6.94742C142.508 6.38112 142.879 6.33543 143.525 6.69446C143.881 6.89275 144.231 7.11307 144.539 7.37174C144.93 7.7014 144.92 8.01964 144.539 8.34359C143.592 9.15142 142.643 9.95762 141.672 10.7377C141.46 10.9083 141.149 10.9695 140.883 11.0804V11.0812Z" fill="#FDFDFD"/>
<g clip-path="url(#clip1_2001_11812)">
<path d="M155.091 14.2617C155.678 14.2619 156.154 14.7385 156.154 15.3262C156.154 15.9137 155.678 16.3895 155.091 16.3896C154.503 16.3896 154.026 15.9138 154.026 15.3262C154.026 14.7385 154.503 14.2617 155.091 14.2617Z" fill="#FDFDFD" stroke="#FDFDFD" stroke-width="2"/>
<path fill-rule="evenodd" clip-rule="evenodd" d="M155.09 14.0117L155.615 14.8293L155.09 15.6493L154.566 14.8293L155.09 14.0117Z" fill="#121212"/>
<path d="M156.748 15.3251C156.748 15.3249 156.748 15.3247 156.748 15.3245H156.748C156.748 15.2812 156.713 15.2461 156.669 15.2461C156.626 15.2461 156.591 15.2812 156.59 15.3245H156.59C156.59 16.1529 155.919 16.8245 155.09 16.8245C154.262 16.8245 153.59 16.1529 153.59 15.3245H153.59C153.59 15.2812 153.555 15.2461 153.511 15.2461C153.468 15.2461 153.432 15.2812 153.432 15.3245H153.432C153.432 15.3247 153.432 15.3249 153.432 15.3251C153.432 15.3251 153.432 15.3252 153.432 15.3252C153.432 15.3253 153.432 15.3254 153.432 15.3255C153.433 16.2408 154.175 16.9827 155.09 16.9827C156.006 16.9827 156.748 16.2408 156.748 15.3255C156.748 15.3254 156.748 15.3253 156.748 15.3252C156.748 15.3252 156.748 15.3251 156.748 15.3251Z" fill="#121212"/>
</g>
<defs>
<clipPath id="clip0_2001_11812">
<rect width="36" height="36" fill="white"/>
</clipPath>
<clipPath id="clip1_2001_11812">
<rect width="4.12833" height="4.12833" fill="white" transform="translate(153.026 13.2617)"/>
</clipPath>
</defs>
</svg>
