<svg width="24" height="24" viewBox="0 0 24 24" fill="none" xmlns="http://www.w3.org/2000/svg">
<path d="M16.1164 9.29518C16.6684 8.74318 17.2164 7.45518 14.9164 9.01918C12.7678 10.4979 10.6047 11.9553 8.42736 13.3912C8.0958 13.5411 7.73735 13.6225 7.37356 13.6304C7.00976 13.6383 6.64812 13.5726 6.31036 13.4372C4.93036 13.0232 3.31936 12.4712 3.31936 12.4712C3.31936 12.4712 2.21936 11.7802 4.10236 11.0442C4.10236 11.0442 12.0634 7.77718 14.8244 6.62618C15.8824 6.16618 19.4714 4.69418 19.4714 4.69418C19.4714 4.69418 21.1284 4.04918 20.9904 5.61418C20.9444 6.25818 20.5764 8.51418 20.2084 10.9522C19.6554 14.4032 19.0574 18.1772 19.0574 18.1772C19.0574 18.1772 18.9654 19.2352 18.1834 19.4192C17.3462 19.405 16.5374 19.1138 15.8834 18.5912C15.6994 18.4532 12.4324 16.3822 11.2354 15.3702C11.1136 15.2877 11.0147 15.1758 10.9478 15.0448C10.8809 14.9138 10.8483 14.768 10.8528 14.621C10.8574 14.474 10.8991 14.3306 10.9741 14.204C11.049 14.0775 11.1547 13.9719 11.2814 13.8972C12.9231 12.3951 14.5351 10.8608 16.1164 9.29518Z" fill="#FDFDFD"/>
</svg>
